<svg width="45" height="68" viewBox="0 0 45 68" fill="none" xmlns="http://www.w3.org/2000/svg">
<g clip-path="url(#clip0_1031_770)">
<path d="M175.115 34.0308C175.115 39.0139 174.326 43.5947 172.747 47.7731C171.169 51.9205 168.94 55.4954 166.062 58.4976C163.184 61.4999 159.717 63.8367 155.662 65.5081C151.639 67.1485 147.182 67.9687 142.291 67.9687C137.401 67.9687 132.944 67.1485 128.921 65.5081C124.897 63.8367 121.446 61.4999 118.567 58.4976C115.689 55.4954 113.461 51.9205 111.882 47.7731C110.303 43.5947 109.514 39.0139 109.514 34.0308C109.514 29.0476 110.303 24.4823 111.882 20.3349C113.461 16.1565 115.689 12.5662 118.567 9.5639C121.446 6.53069 124.897 4.1784 128.921 2.50704C132.944 0.835681 137.401 0 142.291 0C147.182 0 151.639 0.835681 155.662 2.50704C159.717 4.1784 163.184 6.53069 166.062 9.5639C168.94 12.5662 171.169 16.1565 172.747 20.3349C174.326 24.4823 175.115 29.0476 175.115 34.0308ZM165.876 34.0308C165.876 29.9452 165.319 26.2775 164.205 23.0276C163.091 19.7778 161.512 17.0386 159.469 14.8101C157.427 12.5507 154.951 10.8174 152.041 9.61032C149.132 8.40323 145.882 7.79969 142.291 7.79969C138.732 7.79969 135.498 8.40323 132.588 9.61032C129.679 10.8174 127.187 12.5507 125.114 14.8101C123.071 17.0386 121.492 19.7778 120.378 23.0276C119.264 26.2775 118.707 29.9452 118.707 34.0308C118.707 38.1163 119.264 41.784 120.378 45.0339C121.492 48.2528 123.071 50.992 125.114 53.2514C127.187 55.4799 129.679 57.1977 132.588 58.4048C135.498 59.5809 138.732 60.169 142.291 60.169C145.882 60.169 149.132 59.5809 152.041 58.4048C154.951 57.1977 157.427 55.4799 159.469 53.2514C161.512 50.992 163.091 48.2528 164.205 45.0339C165.319 41.784 165.876 38.1163 165.876 34.0308Z" fill="#E2F0EF"/>
<path d="M267.646 67.2723H258.639V0.742828H267.646V67.2723Z" fill="#E2F0EF"/>
<path d="M375.926 40.7626V67.2723H366.919V40.7626L342.545 0.742828H350.438C351.242 0.742828 351.877 0.944011 352.341 1.34638C352.805 1.71779 353.208 2.21301 353.548 2.83203L368.776 28.6917C369.333 29.775 369.844 30.7964 370.308 31.7559C370.772 32.6844 371.175 33.6284 371.515 34.5879C371.856 33.6284 372.243 32.6844 372.676 31.7559C373.109 30.7964 373.589 29.775 374.115 28.6917L389.297 2.83203C389.575 2.30586 389.962 1.82612 390.457 1.3928C390.953 0.959487 391.587 0.742828 392.361 0.742828H400.3L375.926 40.7626Z" fill="#E2F0EF"/>
<path fill-rule="evenodd" clip-rule="evenodd" d="M81.3688 32.0344C79.3879 32.6534 77.2368 32.963 74.6369 32.963V40.0198C75.2559 40.3293 75.8285 40.8555 76.3547 41.5983L93.6254 65.3688C94.3992 66.6378 95.6063 67.2723 97.2467 67.2723H105.232L85.8258 40.8555C84.9901 39.6174 83.9996 38.6734 82.8544 38.0235C85.4234 37.4354 87.7138 36.5688 89.7256 35.4236C91.7684 34.2784 93.4862 32.9011 94.879 31.2916C96.3027 29.6512 97.386 27.8096 98.1288 25.7668C98.8717 23.724 99.2431 21.5265 99.2431 19.1742C99.2431 16.3577 98.7633 13.8197 97.8038 11.5602C96.8443 9.26987 95.3587 7.31994 93.3469 5.71048C91.366 4.10103 88.8435 2.87846 85.7793 2.04278C82.7152 1.17614 79.0784 0.742828 74.8691 0.742828H56.0662V67.2723H65.0266V39.7064V39.5091V32.963V7.84611H74.8691C80.0688 7.84611 83.9687 8.85202 86.5686 10.8638C89.1685 12.8757 90.4684 15.8625 90.4684 19.8242C90.4684 21.7741 90.128 23.5538 89.447 25.1633C88.7661 26.7727 87.7447 28.1655 86.3829 29.3417C85.052 30.4869 83.3806 31.3844 81.3688 32.0344Z" fill="#E2F0EF"/>
<path fill-rule="evenodd" clip-rule="evenodd" d="M338.704 60.819V35.2843H330.579V42.1554V42.7996V56.7798C328.289 58.0179 325.937 58.9929 323.522 59.7047C321.139 60.3857 318.4 60.7261 315.305 60.7261C311.374 60.7261 307.83 60.1226 304.673 58.9155C301.516 57.7084 298.823 55.9596 296.595 53.6693C294.397 51.3479 292.695 48.5468 291.488 45.266C290.312 41.9543 289.724 38.2092 289.724 34.0308C289.724 30.0071 290.296 26.3858 291.442 23.1669C292.587 19.9171 294.227 17.1624 296.363 14.903C298.498 12.6126 301.083 10.8638 304.116 9.65675C307.149 8.41871 310.538 7.79969 314.284 7.79969C316.852 7.79969 319.065 8.00087 320.923 8.40324C322.811 8.8056 324.435 9.30081 325.797 9.88889C327.19 10.446 328.366 11.0341 329.326 11.6531C330.285 12.2721 331.136 12.7983 331.879 13.2316C332.653 13.6959 333.349 13.8506 333.968 13.6959C334.618 13.5102 335.145 13.1078 335.547 12.4888L338.1 8.40324C336.677 7.10329 335.145 5.94262 333.504 4.92123C331.864 3.86889 330.084 2.98678 328.165 2.27491C326.246 1.53208 324.157 0.974964 321.897 0.603548C319.638 0.201183 317.193 0 314.562 0C309.362 0 304.658 0.820206 300.448 2.46062C296.239 4.10103 292.664 6.42236 289.724 9.42462C286.783 12.3959 284.509 15.9708 282.899 20.1492C281.321 24.3276 280.531 28.9548 280.531 34.0308C280.531 39.0449 281.352 43.6411 282.992 47.8195C284.632 51.9979 286.969 55.5882 290.002 58.5905C293.066 61.5618 296.75 63.8831 301.052 65.5545C305.354 67.1949 310.182 68.0151 315.537 68.0151C320.056 68.0151 324.203 67.427 327.979 66.2509C331.786 65.0438 335.361 63.2331 338.704 60.819Z" fill="#E2F0EF"/>
<path fill-rule="evenodd" clip-rule="evenodd" d="M26.7166 34.2165C24.7667 34.8974 22.5072 35.2379 19.9383 35.2379H9.26016H0.299805V67.2723H9.26016V42.3876H19.9383C23.9619 42.3876 27.5058 41.8769 30.57 40.8555C33.6651 39.8032 36.2495 38.3484 38.3233 36.4914C40.4279 34.6343 42.0219 32.4213 43.1052 29.8524C44.1885 27.2834 44.7302 24.4514 44.7302 21.3563C44.7302 18.2302 44.2195 15.3982 43.1981 12.8602C42.2076 10.3222 40.691 8.15562 38.6483 6.36046C36.6055 4.56529 34.0211 3.18797 30.895 2.22849C27.7999 1.23805 24.1476 0.742828 19.9383 0.742828H0.299805V7.84611H9.26016H19.9383C25.2619 7.84611 29.2236 9.03773 31.8235 11.421C34.4544 13.8042 35.7698 17.116 35.7698 21.3563C35.7698 23.3991 35.4293 25.2716 34.7484 26.9739C34.0675 28.6762 33.0461 30.1464 31.6842 31.3844C30.3533 32.5915 28.6975 33.5356 26.7166 34.2165Z" fill="#E2F0EF"/>
<path fill-rule="evenodd" clip-rule="evenodd" d="M243.296 47.6338C244.874 43.5482 245.663 39.0139 245.663 34.0308C245.663 29.0476 244.874 24.5133 243.296 20.4277C241.717 16.3422 239.489 12.8447 236.61 9.93532C233.732 6.99496 230.265 4.73553 226.211 3.15702C222.187 1.54756 217.73 0.742828 212.84 0.742828H188.001V8.03182H197.008H212.84C216.43 8.03182 219.68 8.61989 222.589 9.79603C225.499 10.9722 227.975 12.6745 230.018 14.903C232.06 17.1315 233.639 19.8552 234.753 23.0741C235.867 26.293 236.425 29.9452 236.425 34.0308C236.425 38.1163 235.867 41.7686 234.753 44.9875C233.639 48.2064 232.06 50.9301 230.018 53.1586C227.975 55.3561 225.499 57.0429 222.589 58.2191C219.68 59.3952 216.43 59.9833 212.84 59.9833H197.008H188.001V67.2723H212.84C217.73 67.2723 222.187 66.483 226.211 64.9045C230.265 63.2951 233.732 61.0356 236.61 58.1262C239.489 55.2168 241.717 51.7193 243.296 47.6338Z" fill="#E2F0EF"/>
</g>
<defs>
<clipPath id="clip0_1031_770">
<rect width="45" height="68" fill="white"/>
</clipPath>
</defs>
</svg>
